<?xml version="1.0" encoding="utf-8"?>
<!-- Generated by Mocodo 4.2.4 -->
<svg width="396" height="102" viewBox="0 0 396 102" xmlns="http://www.w3.org/2000/svg">
<rect x="0" y="0" width="396" height="102" fill="#f7f7f7" stroke="none" stroke-width="0"/>

<!-- Association POSSEDE -->
<g>
	<line x1="243" y1="51" x2="133" y2="51" stroke="#8073ac" stroke-width="2"/>
	<line x1="39" y1="51" x2="133" y2="51" stroke="#8073ac" stroke-width="2"/>
	<g>
		<path d="M151 26 a14 14 90 0 1 14 14 V51 h-64 V40 a14 14 90 0 1 14 -14" fill="#b2abd2" stroke="#b2abd2" stroke-width="0"/>
		<path d="M165 51 v11 a14 14 90 0 1 -14 14 H115 a14 14 90 0 1 -14 -14 V51 H64" fill="#d8daeb" stroke="#d8daeb" stroke-width="0"/>
		<rect x="101" y="26" width="64" height="50" fill="none" rx="14" stroke="#8073ac" stroke-width="2"/>
		<line x1="101" y1="51" x2="165" y2="51" stroke="#8073ac" stroke-width="1"/>
		<text x="108" y="43.75" fill="#000000" font-family="Verdana" font-size="12">Possède</text>
	</g>
	<text x="171" y="68" fill="#b35806" font-family="Verdana" font-size="12">1,1</text>
	<text x="74" y="68" fill="#b35806" font-family="Verdana" font-size="12">0,N</text>
</g>

<!-- Association REPONSE -->
<g>
	<path d="M243 51 C288 17.67 325 17.67 354 51" fill="none" stroke="#8073ac" stroke-width="2"/>
	<path d="M243 51 C288.67 84.33 325.67 84.33 354 51" fill="none" stroke="#8073ac" stroke-width="2"/>
	<g>
		<path d="M373 26 a14 14 90 0 1 14 14 V51 h-66 V40 a14 14 90 0 1 14 -14" fill="#b2abd2" stroke="#b2abd2" stroke-width="0"/>
		<path d="M387 51 v11 a14 14 90 0 1 -14 14 H335 a14 14 90 0 1 -14 -14 V51 H66" fill="#d8daeb" stroke="#d8daeb" stroke-width="0"/>
		<rect x="321" y="26" width="66" height="50" fill="none" rx="14" stroke="#8073ac" stroke-width="2"/>
		<line x1="321" y1="51" x2="387" y2="51" stroke="#8073ac" stroke-width="1"/>
		<text x="328" y="43.75" fill="#000000" font-family="Verdana" font-size="12">Réponse</text>
	</g>
	<text x="294" y="45" fill="#b35806" font-family="Verdana" font-size="12">0,1</text>
	<text x="294" y="66" fill="#b35806" font-family="Verdana" font-size="12">0,N</text>
</g>

<!-- Entity POST -->
<g>
	<g>
		<rect x="9" y="9" width="60" height="25" fill="#fdb863" stroke="none" stroke-width="0" opacity="1"/>
		<rect x="9" y="34" width="60" height="59" fill="#fee0b6" stroke="none" stroke-width="0" opacity="1"/>
		<rect x="9" y="9" width="60" height="84" fill="none" stroke="#e08214" stroke-width="2" opacity="1"/>
		<line x1="9" y1="34" x2="69" y2="34" stroke="#e08214" stroke-width="1"/>
	</g>
	<text x="26" y="26.75" fill="#000000" font-family="Verdana" font-size="12">Post</text>
	<text x="14" y="51.8" fill="#000000" font-family="Verdana" font-size="12">id</text>
	<line x1="14" y1="54" x2="26" y2="54" stroke="#000000" stroke-width="1"/>
	<text x="14" y="68.8" fill="#000000" font-family="Verdana" font-size="12">date</text>
	<text x="14" y="85.8" fill="#000000" font-family="Verdana" font-size="12">contenu</text>
</g>

<!-- Entity COMMENTAIRE -->
<g>
	<g>
		<rect x="197" y="9" width="92" height="25" fill="#fdb863" stroke="none" stroke-width="0" opacity="1"/>
		<rect x="197" y="34" width="92" height="59" fill="#fee0b6" stroke="none" stroke-width="0" opacity="1"/>
		<rect x="197" y="9" width="92" height="84" fill="none" stroke="#e08214" stroke-width="2" opacity="1"/>
		<line x1="197" y1="34" x2="289" y2="34" stroke="#e08214" stroke-width="1"/>
	</g>
	<text x="202" y="26.75" fill="#000000" font-family="Verdana" font-size="12">Commentaire</text>
	<text x="202" y="51.8" fill="#000000" font-family="Verdana" font-size="12">id</text>
	<line x1="202" y1="54" x2="214" y2="54" stroke="#000000" stroke-width="1"/>
	<text x="202" y="68.8" fill="#000000" font-family="Verdana" font-size="12">date</text>
	<text x="202" y="85.8" fill="#000000" font-family="Verdana" font-size="12">contenu</text>
</g>
</svg>